<svg xmlns="http://www.w3.org/2000/svg" width="24.344" height="23" viewBox="0 0 24.344 23"><defs><style>.a{fill:#fff;}</style></defs><path class="a" d="M25.172,15.172a2.042,2.042,0,0,1-.578,1.406L23.422,17.75A2.025,2.025,0,0,1,22,18.344a1.96,1.96,0,0,1-1.406-.594L16,13.172v11A1.872,1.872,0,0,1,14,26H12a1.872,1.872,0,0,1-2-1.828v-11L5.406,17.75a1.961,1.961,0,0,1-2.812,0L1.422,16.578a1.988,1.988,0,0,1-.594-1.406,2.025,2.025,0,0,1,.594-1.422L11.594,3.578A1.946,1.946,0,0,1,13,3a2.01,2.01,0,0,1,1.422.578L24.594,13.75a2.08,2.08,0,0,1,.578,1.422Z" transform="translate(-0.828 -3)"/></svg>