<svg xmlns="http://www.w3.org/2000/svg" width="19.504" height="33.448" viewBox="0 0 19.504 33.448"><defs><style>.a{fill:#ddd;}</style></defs><path class="a" d="M19.709,23.928a1.157,1.157,0,0,1-.335.77L3.755,40.317a1.151,1.151,0,0,1-.77.335,1.157,1.157,0,0,1-.77-.335L.54,38.642a1.09,1.09,0,0,1-.335-.77A1.157,1.157,0,0,1,.54,37.1L13.713,23.928.54,10.754a1.053,1.053,0,0,1,0-1.54L2.215,7.539a1.151,1.151,0,0,1,.77-.335,1.157,1.157,0,0,1,.77.335L19.374,23.158a1.151,1.151,0,0,1,.335.77Z" transform="translate(-0.205 -7.204)"/></svg>