<svg xmlns="http://www.w3.org/2000/svg" width="24" height="20" viewBox="0 0 24 20"><defs><style>.a{fill:#fff;}</style></defs><path class="a" d="M18.5,14a.99.99,0,0,1-.3.7L9.7,23.2a1,1,0,0,1-.7.3,1.007,1.007,0,0,1-1-1V18H1a1.007,1.007,0,0,1-1-1V11a1.007,1.007,0,0,1,1-1H8V5.5a1.007,1.007,0,0,1,1-1,.99.99,0,0,1,.7.3l8.5,8.5A1,1,0,0,1,18.5,14ZM24,8.5v11A4.5,4.5,0,0,1,19.5,24h-5a.514.514,0,0,1-.5-.5c0-.438-.2-1.5.5-1.5h5A2.507,2.507,0,0,0,22,19.5V8.5A2.507,2.507,0,0,0,19.5,6H15c-.391,0-1,.078-1-.5,0-.438-.2-1.5.5-1.5h5A4.5,4.5,0,0,1,24,8.5Z" transform="translate(0 -4)"/></svg>